<svg width="1025" height="1025" viewBox="0 0 1025 1025" fill="none" xmlns="http://www.w3.org/2000/svg">
<rect width="1025" height="1025" rx="200" fill="#245DEF"/>
<path d="M263.917 590.392H288.274V476.091H263.917V590.392ZM276.096 459.358C283.989 459.358 290.304 453.382 290.304 445.994C290.304 438.497 283.989 432.521 276.096 432.521C268.315 432.521 262 438.497 262 445.994C262 453.382 268.315 459.358 276.096 459.358Z" fill="white"/>
<path d="M384.801 593C422.239 593 447.724 573.986 453.926 541.608H428.779C423.705 560.513 407.58 571.704 384.914 571.704C355.031 571.704 336.087 548.561 336.087 511.946C336.087 475.656 355.257 452.296 384.801 452.296C406.903 452.296 424.269 465.443 428.779 485.543H453.813C449.528 452.839 421.675 431 384.801 431C339.357 431 310.263 462.292 310.263 511.946C310.263 561.926 339.131 593 384.801 593Z" fill="white"/>
<path d="M515.27 573.769C502.189 573.769 493.619 567.249 493.619 557.254C493.619 547.475 501.851 541.282 516.398 540.304L545.604 538.565V547.583C545.604 562.469 532.298 573.769 515.27 573.769ZM508.504 592.348C524.066 592.348 539.064 584.308 545.942 571.596H546.506V590.392H569.848V511.62C569.848 488.694 551.468 474.026 522.713 474.026C493.394 474.026 475.126 489.237 473.773 509.881H496.777C498.919 499.668 507.715 493.149 521.811 493.149C536.696 493.149 545.604 500.755 545.604 513.467V522.268L513.128 524.115C484.936 525.636 469.037 537.913 469.037 557.905C469.037 578.441 485.275 592.348 508.504 592.348Z" fill="white"/>
<path d="M593.529 590.392H617.886V521.942C617.886 505.753 627.584 495.648 643.258 495.648C647.995 495.648 652.28 496.191 654.197 496.952V475.113C652.392 474.787 649.348 474.243 645.852 474.243C631.869 474.243 621.269 482.175 617.323 495.539H616.759V476.091H593.529V590.392Z" fill="white"/>
<path d="M667.165 508.469C667.165 524.441 677.99 535.197 699.415 540.195L720.615 545.193C733.019 548.235 737.53 552.256 737.53 559.535C737.53 568.771 728.509 574.638 713.849 574.638C698.964 574.638 690.169 568.553 688.252 557.579H664.12C666.037 578.549 684.643 592.565 712.722 592.565C741.815 592.565 762 578.223 762 557.362C762 540.521 752.979 531.829 729.073 526.288L709.113 521.833C696.822 518.899 690.958 514.119 690.958 507.056C690.958 498.038 699.754 491.845 712.947 491.845C726.592 491.845 735.275 498.256 736.402 508.577H759.294C758.504 488.26 740.011 474.026 713.624 474.026C685.884 474.026 667.165 488.042 667.165 508.469Z" fill="white"/>
</svg>
