<svg width="54" height="20" viewBox="0 0 54 20" fill="none" >
<path fill-rule="evenodd" clip-rule="evenodd" d="M9.40885 0.802811H9.99012L10.0061 0.803345C12.0084 0.870125 13.9224 1.58785 15.4663 2.8301C17.0103 1.58785 18.9242 0.870125 20.9265 0.803345L20.9425 0.802811H21.5238L21.5398 0.803345C23.5421 0.870125 25.4561 1.58785 27 2.8301C28.544 1.58785 30.4579 0.870125 32.4602 0.803345L32.4762 0.802811H33.0575L33.0735 0.803345C35.0758 0.870125 36.9897 1.58785 38.5337 2.8301C40.0776 1.58785 41.9916 0.870125 43.9939 0.803345L44.0099 0.802811H44.5912L44.6072 0.803345C47.0191 0.883788 49.3029 1.90878 50.9661 3.65737C52.6294 5.40596 53.539 7.7381 53.4987 10.1511C53.4585 12.564 52.4717 14.8645 50.7511 16.5567C49.0305 18.2489 46.7138 19.1972 44.3005 19.1972C42.1939 19.1972 40.1609 18.4746 38.5337 17.1653C36.9065 18.4746 34.8735 19.1972 32.7668 19.1972C30.6602 19.1972 28.6272 18.4746 27 17.1653C25.3728 18.4746 23.3398 19.1972 21.2332 19.1972C19.1265 19.1972 17.0935 18.4746 15.4663 17.1653C13.8391 18.4746 11.8061 19.1972 9.69948 19.1972C7.28619 19.1972 4.96953 18.2489 3.24891 16.5567C1.52829 14.8645 0.541507 12.564 0.50128 10.1511C0.461053 7.7381 1.3706 5.40596 3.03386 3.65737C4.69712 1.90878 6.98088 0.883788 9.39283 0.803345L9.40885 0.802811ZM16.8394 15.7988C18.0971 16.7515 19.6385 17.2749 21.2332 17.2749C22.8279 17.2749 24.3692 16.7515 25.6269 15.7988C24.334 14.2076 23.6031 12.2207 23.5686 10.1511C23.5324 7.97839 24.2662 5.87124 25.6269 4.19662C24.4402 3.29776 22.9977 2.77855 21.4913 2.72509H20.9751C19.4687 2.77855 18.0261 3.29776 16.8394 4.19662C18.2001 5.87124 18.9339 7.97839 18.8977 10.1511C18.8632 12.2207 18.1323 14.2076 16.8394 15.7988ZM15.4663 5.55907C16.4665 6.85843 17.0033 8.46471 16.9757 10.119C16.9495 11.6916 16.415 13.2039 15.4663 14.4364C14.5177 13.2039 13.9832 11.6916 13.957 10.119C13.9294 8.46471 14.4662 6.85843 15.4663 5.55907ZM14.0933 4.19662C12.7326 5.87124 11.9987 7.97839 12.035 10.1511C12.0695 12.2207 12.8003 14.2076 14.0933 15.7988C12.8355 16.7515 11.2942 17.2749 9.69948 17.2749C7.79046 17.2749 5.95788 16.5248 4.59679 15.1862C3.2357 13.8476 2.45511 12.0278 2.42329 10.119C2.39147 8.21026 3.11097 6.36543 4.42668 4.98222C5.73882 3.60276 7.53915 2.79259 9.44139 2.72509H9.95758C11.464 2.77855 12.9065 3.29776 14.0933 4.19662ZM27 5.55907C25.9998 6.85843 25.4631 8.46471 25.4907 10.119C25.5169 11.6916 26.0514 13.2039 27 14.4364C27.9487 13.2039 28.4831 11.6916 28.5094 10.119C28.5369 8.46471 28.0002 6.85843 27 5.55907ZM28.3731 15.7988C29.6308 16.7515 31.1721 17.2749 32.7668 17.2749C34.3615 17.2749 35.9029 16.7515 37.1606 15.7988C35.8677 14.2076 35.1368 12.2207 35.1023 10.1511C35.0661 7.97839 35.7999 5.87124 37.1606 4.19662C35.9739 3.29776 34.5314 2.77855 33.0249 2.72509H32.5088C31.0023 2.77855 29.5598 3.29776 28.3731 4.19662C29.7338 5.87124 30.4676 7.97839 30.4314 10.1511C30.3969 12.2207 29.666 14.2076 28.3731 15.7988ZM38.5337 5.55907C37.5335 6.85843 36.9967 8.46472 37.0243 10.119C37.0506 11.6916 37.585 13.2039 38.5337 14.4364C39.4823 13.2039 40.0168 11.6916 40.043 10.119C40.0706 8.46472 39.5338 6.85843 38.5337 5.55907ZM39.9067 15.7988C41.1645 16.7515 42.7058 17.2749 44.3005 17.2749C46.2095 17.2749 48.0421 16.5248 49.4032 15.1862C50.7643 13.8476 51.5449 12.0278 51.5767 10.119C51.6085 8.21026 50.889 6.36543 49.5733 4.98222C48.2612 3.60276 46.4609 2.79259 44.5586 2.72509H44.0424C42.536 2.77855 41.0935 3.29776 39.9067 4.19662C41.2675 5.87124 42.0013 7.97839 41.965 10.1511C41.9305 12.2207 41.1997 14.2076 39.9067 15.7988Z" />
</svg>
