<svg width="50" height="12" viewBox="0 0 50 12" fill="none" >
<path d="M11.0918 0.283343C9.89343 0.272659 8.76164 0.87828 8.76164 0.87828C8.76163 0.87828 7.62138 1.56884 7.20488 2.6036C7.1833 2.70414 4.92429 7.08546 4.92429 7.08546C2.06085 6.25743 0.676434 7.93515 0.720062 8.58272C1.41186 10.3182 4.79471 9.0837 5.13252 8.68188C5.31945 8.58157 5.4399 8.70171 5.4399 8.70171C5.4399 8.70171 6.26841 9.25322 6.36205 9.29665C6.45558 9.34008 6.92724 9.27682 6.92724 9.27682C7.29408 9.24894 7.94867 8.53013 8.02788 8.52323C8.1502 8.52358 8.29774 9.31957 8.8013 9.30656C9.40551 9.42333 10.0606 8.74137 10.0606 8.74137C10.1468 8.61937 10.1796 8.71163 10.1796 8.71163C10.1657 9.45962 10.7732 9.32762 10.953 9.30656C11.55 9.06359 13.0121 7.62305 12.8469 8.04728C12.7894 8.16226 12.3412 8.99918 12.3412 8.99918C12.291 9.22208 12.4502 9.20741 12.4502 9.20741L13.5013 9.19749C13.6811 9.09005 14.6006 7.10978 14.4929 7.38293C14.8243 6.78323 15.5737 6.56985 15.5737 6.56985C15.6457 6.54847 15.6133 6.64918 15.6133 6.64918L14.3838 9.08842C14.3623 9.15295 14.483 9.21732 14.483 9.21732L15.5538 9.19749C15.6977 9.18357 16.595 7.34327 16.595 7.34327C16.8392 6.87632 17.7055 6.60951 17.7055 6.60951C17.8637 6.58116 17.7551 6.73842 17.7551 6.73842L16.9123 8.5034C16.7842 9.3047 17.4575 9.35166 17.7452 9.31648C18.0329 9.27416 18.5008 9.11214 19.4209 8.42407C19.608 8.28089 19.649 8.42495 19.649 8.45382C19.6569 9.43923 20.7397 9.3264 20.7397 9.3264C21.0634 9.40643 22.3774 9.37546 23.4764 7.18462C23.0746 8.6724 23.8938 9.07755 23.9226 9.12808C23.9515 9.17841 24.3919 9.33219 24.5572 9.29665C26.2333 9.44522 26.937 6.83757 26.937 6.83757C27.3141 6.55462 27.4099 6.47343 27.5617 6.39137C27.9358 6.42822 28.0362 6.43876 28.2161 6.46078C28.3599 6.51158 28.2296 6.64584 28.1863 6.68884C26.4753 8.0221 27.2264 9.05022 27.284 9.02893C28.0328 10.0452 29.587 8.27367 29.8819 8.24559C30.257 9.74289 31.3981 9.09104 31.4486 9.09834C31.3481 9.39295 31.0554 10.1215 30.8041 10.5956C30.2794 11.3351 29.4555 10.5064 29.4555 10.5064L29.2473 10.4964C29.1468 10.6256 29.2077 10.7741 29.2077 10.7741C29.4236 11.12 29.7001 11.5986 30.5562 11.7161C31.4194 11.7545 31.9146 10.8038 31.9146 10.8038C31.9146 10.8038 33.1247 8.57106 33.2037 8.30509C33.5703 7.97521 34.2065 7.49891 34.6811 7.15487C34.9903 7.09105 33.9073 8.85675 33.8283 9.10825C33.8068 9.25211 33.8581 9.25699 33.8581 9.25699C33.8581 9.25699 34.6815 9.29796 34.8397 9.27682C34.9979 9.25571 35.7664 7.43001 36.0395 7.08546C36.2766 6.6905 37.041 6.32196 37.041 6.32196C37.2064 6.28646 37.1501 6.48061 37.1501 6.48061L36.1387 8.52323C35.8948 9.37839 36.5816 9.38283 36.7039 9.37597C37.0347 9.35519 38.2705 8.64222 38.2705 8.64222C38.443 8.51316 38.4391 8.72154 38.4391 8.72154C38.4249 8.9949 38.7201 9.44273 38.9646 9.38589C39.8422 9.46736 41.1695 8.00956 41.2056 8.14644C41.2129 8.17519 40.7098 9.16775 40.7098 9.16775C40.7314 9.24695 40.8189 9.28673 40.8189 9.28673C40.8189 9.28673 41.6686 9.29609 41.8699 9.29665C42.0713 9.29728 42.9874 7.10807 43.1887 6.98631C43.5984 6.56311 44.0468 6.52289 44.0613 6.53019C44.2123 6.52344 43.2063 8.13037 43.149 8.45382C42.9268 9.38121 43.5853 9.36606 43.5853 9.36606C44.1104 9.44673 45.398 8.53334 45.4197 8.61247C45.5706 8.46195 45.5883 8.64222 45.5883 8.64222V8.71163C45.6752 9.4601 46.1138 9.37597 46.1138 9.37597C46.6174 9.50682 48.5828 7.85888 48.5828 7.85888L48.2853 7.53167L47.0558 8.42407C46.9552 8.47424 46.8971 8.36458 46.8971 8.36458L48.2754 5.70719C48.34 5.64266 48.2457 5.56837 48.2457 5.56837H47.0062C46.9199 5.66162 46.8674 5.72702 46.8674 5.72702L45.7469 7.90846L44.5174 8.51331C44.3879 8.54885 44.4182 8.41416 44.4182 8.41416C44.4182 8.41416 45.4426 6.4039 45.5288 6.12365C45.5863 5.99435 45.5585 5.78652 45.5585 5.78652C45.2198 5.00144 43.8517 6.01783 43.6646 6.02449C43.6574 6.03167 43.8332 5.66753 43.8332 5.66753C43.8835 5.55973 43.7836 5.55846 43.7836 5.55846L42.6334 5.54854C42.6334 5.54854 42.6368 5.46684 42.5938 5.53863C42.5506 5.61046 41.8104 6.99622 41.8104 6.99622L39.9562 8.39433C39.7979 8.42276 39.8372 8.315 39.8372 8.315L41.1957 5.68736L41.2056 5.57829L39.8967 5.54854L38.8159 7.63082C38.7584 7.69539 37.626 8.33483 37.626 8.33483C37.4534 8.38485 37.4475 8.23568 37.4475 8.23568L38.449 6.29221C38.6759 5.53406 37.8476 5.31116 37.4376 5.4593C37.1605 5.55917 36.9022 5.6477 36.9022 5.6477C36.9022 5.6477 36.8203 5.66899 36.8923 5.56837C37.0143 5.39608 38.2805 2.89115 38.2805 2.89115C38.3093 2.81921 38.2408 2.77217 38.2408 2.77217L37.0906 2.76225C36.9971 2.80501 36.9815 2.87132 36.9815 2.87132L35.3454 5.97491L33.9969 6.98631C33.9106 7.04366 33.9077 6.94664 33.9077 6.94664L34.5819 5.66753V5.53863L33.3722 5.52871L33.1739 5.68736C33.0371 5.39925 32.3428 5.40258 32.3212 5.40972C30.8681 5.36244 30.0505 7.42259 30.0505 7.42259C29.242 8.12351 28.8684 8.34161 28.6028 8.38441C28.3819 8.39682 28.3153 8.21584 28.3153 8.21584C28.0074 7.27271 29.9414 6.38145 29.9414 6.38145C30.0061 6.34556 30.2849 5.50896 30.2488 5.50888C30.2128 5.5088 27.8708 5.50618 27.8492 5.49896C27.7197 5.44835 27.0942 6.03702 26.9072 6.17323C26.3595 4.56761 24.237 5.78195 23.9425 6.50044C23.816 6.5342 23.7593 6.51067 23.6946 6.51036C23.7159 5.96381 23.6433 5.62299 23.2979 5.44938C23.1108 5.34821 22.346 5.44938 22.346 5.44938L23.645 2.86141C23.7096 2.7824 23.5855 2.70276 23.5855 2.70276H22.4155C22.3651 2.73143 22.3064 2.80191 22.3064 2.80191C22.3064 2.80191 20.0956 7.08364 19.9663 7.31352C19.837 7.54329 18.2211 8.40424 18.2211 8.40424C18.2353 8.24611 19.2761 6.43643 19.3119 6.08399C19.3543 5.17064 18.3104 5.4593 18.3104 5.4593C18.3104 5.4593 17.7192 5.85172 17.18 6.12365C17.0641 5.1234 16.1884 5.46922 16.1884 5.46922L15.1969 6.11373L15.3754 5.6477L15.415 5.46922L14.2251 5.43947C14.0887 5.53982 13.8484 6.08399 13.8484 6.08399L13.4716 6.77808L11.776 8.05719C11.6106 8.1502 11.6967 7.92829 11.6967 7.92829C11.6967 7.92829 12.8414 5.683 12.8667 5.66753C12.9601 5.61014 12.8865 5.46922 12.8865 5.46922L11.7363 5.4593C11.7363 5.4593 11.5415 5.79021 11.4983 5.82618C10.9511 5.05486 9.14517 5.36788 8.17661 7.65065C8.05278 7.80323 7.95704 7.91009 7.88906 7.93821C6.75345 9.26579 6.10425 7.94812 6.10425 7.94812L8.13695 4.07111C8.13695 4.07111 9.06184 2.00192 9.64413 1.41372C11.118 0.417996 11.538 1.35423 11.538 1.35423C11.6654 1.64932 12.0537 2.71458 10.0507 3.22828C9.7879 3.25426 9.87219 3.37702 9.87219 3.37702C10.4552 3.87494 11.1711 3.82322 11.1711 3.82322C11.8761 3.9618 13.7866 2.91051 13.0948 1.22533C12.5548 0.51982 11.8108 0.289752 11.0918 0.283343ZM41.3444 2.91098C40.2943 2.95116 40.2328 4.36057 41.3047 4.5074C42.3476 4.53913 42.5458 2.95759 41.3444 2.91098ZM48.4935 2.91098C47.357 2.91503 47.4417 4.51874 48.5134 4.5074C49.5851 4.42415 49.4935 2.94969 48.4935 2.91098ZM10.9728 5.91542C11.309 5.9231 11.2502 6.32591 11.191 6.40129C11.227 6.52368 10.6059 7.57133 10.6059 7.57133C9.88733 8.4685 9.54497 8.30509 9.54497 8.30509C9.54497 8.30509 9.2987 8.27086 9.48548 7.78947C9.6866 7.45195 10.0773 6.5737 10.487 6.06415C10.7027 5.95325 10.8608 5.91286 10.9728 5.91542ZM22.2469 6.01458C22.5994 6.0588 22.4254 6.38145 22.4254 6.38145L21.4536 8.29517C21.1446 8.67561 20.8587 8.54306 20.8587 8.54306C20.7005 8.4274 20.9678 7.98779 20.9678 7.98779L21.88 6.20297C22.0596 6.0164 22.2469 6.01458 22.2469 6.01458ZM32.3608 6.02449C32.636 5.97569 32.7475 6.20297 32.7475 6.20297C32.7475 6.20297 32.7636 6.23954 32.7277 6.44095C32.6488 6.75008 31.7956 8.22576 31.7956 8.22576C31.4363 8.58447 31.1214 8.51331 31.1214 8.51331C30.9415 8.46243 31.0123 8.19601 31.0123 8.19601C31.0123 8.19601 31.7032 6.77927 32.0336 6.18314C32.163 6.08819 32.2691 6.04076 32.3608 6.02449ZM25.7471 6.03441C25.899 6.00876 26.0434 6.07139 26.0148 6.39137C25.8354 6.77209 25.1273 8.17079 24.9836 8.36458C24.9549 8.53001 24.2318 8.79968 24.4184 8.19601C24.4184 8.19601 25.4326 6.29915 25.4397 6.21289C25.4433 6.16974 25.5952 6.06005 25.7471 6.03441ZM2.91142 7.59116C3.5043 7.57703 4.0418 7.76964 4.0418 7.76964C4.0418 7.76964 3.9031 8.23183 2.59412 8.4439C1.9755 8.40635 1.65229 8.40916 1.65213 8.1861C1.95392 7.73697 2.45029 7.60215 2.91142 7.59116Z" />
</svg>
