<svg width="32" height="30" viewBox="0 0 32 30" fill="none" xmlns="http://www.w3.org/2000/svg">
<path d="M16.0017 30L20.2002 6.29496C24.2022 6.29496 25.4645 6.73551 25.6468 8.53372C25.6468 8.53372 28.3314 7.52881 29.6854 5.48788C24.4016 3.02992 19.0926 2.91907 19.0926 2.91907L15.9947 6.707L16.0017 6.70652L12.9038 2.91847C12.9038 2.91847 7.59467 3.02944 2.31158 5.4874C3.66443 7.52834 6.35012 8.53324 6.35012 8.53324C6.53344 6.73492 7.79421 6.29437 11.7693 6.29152L16.0017 30Z" />
<path d="M16 1.82494C20.2712 1.79214 25.1601 2.48826 30.1648 4.67806C30.8337 3.4694 31.0057 2.93522 31.0057 2.93522C25.5348 0.762291 20.4113 0.0186533 15.9994 0C11.5877 0.0186533 6.46452 0.76241 0.994324 2.93522C0.994324 2.93522 1.23836 3.5932 1.8346 4.67806C6.83838 2.48826 11.7281 1.79214 15.9994 1.82494H16" />
</svg>
