<svg width="54" height="8" viewBox="0 0 54 8" fill="none" xmlns="http://www.w3.org/2000/svg">
<path fill-rule="evenodd" clip-rule="evenodd" d="M0.5 0.666992V1.63471H2.08728L5.19355 7.46014H9.01597L12.1222 1.62503L13.7093 1.61503L13.7127 0.666992H8.96417V1.61834H10.2287L8.03527 5.75976L5.66306 1.63278L7.39331 1.62503L7.39026 0.666992H0.5Z" />
<path fill-rule="evenodd" clip-rule="evenodd" d="M31.1343 0.666992V1.63471H32.7212L35.8275 7.46014H39.65L42.7563 1.62503L44.3435 1.61503L44.3464 0.666992H39.5987V1.61834H40.8628L38.6693 5.75976L36.2969 1.63278L38.0277 1.62503L38.0244 0.666992H31.1343Z" />
<path fill-rule="evenodd" clip-rule="evenodd" d="M23.3241 0.666936V1.63465H24.9111L24.9138 6.39061H23.2406V7.45067L24.9149 7.46015H32.8392V4.29803H31.807C31.7504 5.97224 30.298 6.39286 29.6863 6.39286C29.1258 6.39286 28.0396 6.39067 28.0396 6.39067V1.63273L29.6028 1.62491L29.6007 0.66687H23.3241V0.666936Z" />
<path fill-rule="evenodd" clip-rule="evenodd" d="M17.911 6.59019C16.96 6.59019 16.1894 5.45102 16.1894 4.04506C16.1894 2.63877 16.96 1.49874 17.911 1.49874C18.8618 1.49874 19.6326 2.63877 19.6326 4.04506C19.6326 5.45102 18.8618 6.59019 17.911 6.59019ZM17.981 0.471802C15.2833 0.471802 13.0964 2.07817 13.0964 4.05891C13.0964 6.03978 15.2832 7.64595 17.981 7.64595C20.6785 7.64595 22.8657 6.03978 22.8657 4.05891C22.8657 2.07817 20.6785 0.471802 17.981 0.471802Z" />
<path fill-rule="evenodd" clip-rule="evenodd" d="M48.5455 6.57209C47.5948 6.57209 46.8243 5.41404 46.8243 3.98483C46.8243 2.55615 47.5949 1.39783 48.5455 1.39783C49.4963 1.39783 50.2667 2.55615 50.2667 3.98483C50.2667 5.41398 49.4963 6.57209 48.5455 6.57209ZM48.6158 0.354065C45.9175 0.354065 43.7313 1.9866 43.7313 3.99967C43.7313 6.01268 45.9174 7.64488 48.6158 7.64488C51.3131 7.64488 53.5 6.01268 53.5 3.99967C53.5 1.9866 51.3131 0.354065 48.6158 0.354065Z" />
</svg>
