<svg width="42" height="42" viewBox="0 0 42 42" fill="none" xmlns="http://www.w3.org/2000/svg">
<circle cx="21" cy="21" r="21" fill="#E1E1E1"/>
<path d="M29 30V28C29 26.9391 28.5786 25.9217 27.8284 25.1716C27.0783 24.4214 26.0609 24 25 24H17C15.9391 24 14.9217 24.4214 14.1716 25.1716C13.4214 25.9217 13 26.9391 13 28V30" stroke="#999999" stroke-width="2" stroke-linecap="round" stroke-linejoin="round"/>
<path d="M21 20C23.2091 20 25 18.2091 25 16C25 13.7909 23.2091 12 21 12C18.7909 12 17 13.7909 17 16C17 18.2091 18.7909 20 21 20Z" stroke="#999999" stroke-width="2" stroke-linecap="round" stroke-linejoin="round"/>
</svg>
