<svg width="56" height="19" viewBox="0 0 56 19" fill="none" xmlns="http://www.w3.org/2000/svg">
<path d="M0.214705 18.6624H2.94272V5.27942H0.214705V18.6624ZM1.57871 3.32031C2.46279 3.32031 3.17005 2.62063 3.17005 1.75557C3.17005 0.877783 2.46279 0.178101 1.57871 0.178101C0.707262 0.178101 0 0.877783 0 1.75557C0 2.62063 0.707262 3.32031 1.57871 3.32031Z" fill="#060606"/>
<path d="M13.7537 18.9677C17.9468 18.9677 20.8011 16.7415 21.4957 12.9505H18.6793C18.111 15.164 16.3049 16.4743 13.7664 16.4743C10.4195 16.4743 8.2977 13.7647 8.2977 9.47751C8.2977 5.22853 10.4447 2.49341 13.7537 2.49341C16.2291 2.49341 18.1741 4.03271 18.6793 6.38619H21.4831C21.0032 2.55702 17.8836 0 13.7537 0C8.66396 0 5.4055 3.66379 5.4055 9.47751C5.4055 15.3294 8.6387 18.9677 13.7537 18.9677Z" fill="#060606"/>
<path d="M28.3663 16.716C26.9012 16.716 25.9414 15.9528 25.9414 14.7824C25.9414 13.6374 26.8633 12.9123 28.4926 12.7978L31.7636 12.5943V13.6502C31.7636 15.393 30.2733 16.716 28.3663 16.716ZM27.6085 18.8914C29.3514 18.8914 31.0311 17.95 31.8015 16.4616H31.8647V18.6624H34.479V9.43935C34.479 6.75511 32.4204 5.03771 29.1998 5.03771C25.9161 5.03771 23.8701 6.81872 23.7185 9.2358H26.295C26.535 8.03998 27.5201 7.27669 29.0988 7.27669C30.7659 7.27669 31.7636 8.1672 31.7636 9.65561V10.6861L28.1263 10.9023C24.9689 11.0804 23.1881 12.518 23.1881 14.8587C23.1881 17.2631 25.0068 18.8914 27.6085 18.8914Z" fill="#060606"/>
<path d="M37.1313 18.6624H39.8593V10.6479C39.8593 8.75239 40.9454 7.56929 42.7009 7.56929C43.2314 7.56929 43.7113 7.6329 43.926 7.72195V5.16493C43.724 5.12676 43.3829 5.06315 42.9914 5.06315C41.4254 5.06315 40.2382 5.99182 39.7961 7.55657H39.733V5.27942H37.1313V18.6624Z" fill="#060606"/>
<path d="M45.3784 9.07043C45.3784 10.9405 46.5909 12.1999 48.9905 12.7851L51.3649 13.3703C52.7542 13.7265 53.2594 14.1972 53.2594 15.0495C53.2594 16.1309 52.249 16.8178 50.6071 16.8178C48.94 16.8178 47.9549 16.1054 47.7402 14.8205H45.0374C45.2521 17.2758 47.336 18.9169 50.4808 18.9169C53.7393 18.9169 56 17.2376 56 14.7951C56 12.8233 54.9896 11.8055 52.3121 11.1567L50.0767 10.6352C48.7001 10.2917 48.0433 9.73194 48.0433 8.90505C48.0433 7.84916 49.0284 7.12404 50.5061 7.12404C52.0343 7.12404 53.0068 7.8746 53.1331 9.08315H55.6969C55.6085 6.70423 53.5372 5.03771 50.5819 5.03771C47.475 5.03771 45.3784 6.67878 45.3784 9.07043Z" fill="#060606"/>
</svg>
