<svg width="20" height="20" viewBox="0 0 20 20" fill="none" xmlns="http://www.w3.org/2000/svg">
<path d="M10.0011 19.9925L12.7991 4.19506C15.4661 4.19506 16.3073 4.48865 16.4288 5.687C16.4288 5.687 18.2178 5.01732 19.1202 3.65721C15.599 2.01918 12.061 1.94531 12.061 1.94531L9.99649 4.46965L10.0011 4.46933L7.93666 1.94492C7.93666 1.94492 4.39858 2.01887 0.877853 3.65689C1.77941 5.017 3.56919 5.68668 3.56919 5.68668C3.69136 4.48825 4.53155 4.19466 7.18062 4.19276L10.0011 19.9925Z" fill="#D3D3D3"/>
<path d="M10 1.21616C12.8464 1.19431 16.1044 1.65821 19.4396 3.11753C19.8854 2.31206 20 1.95608 20 1.95608C16.3541 0.508002 12.9398 0.0124308 9.99961 0C7.05959 0.0124308 3.64542 0.508081 0 1.95608C0 1.95608 0.162628 2.39456 0.559972 3.11753C3.89457 1.65821 7.15313 1.19431 9.99961 1.21616H10" fill="#D3D3D3"/>
</svg>
